<?xml version="1.0" standalone="no"?><!DOCTYPE svg PUBLIC "-//W3C//DTD SVG 1.1//EN" "http://www.w3.org/Graphics/SVG/1.1/DTD/svg11.dtd"><svg t="1573638346694" class="icon" viewBox="0 0 1024 1024" version="1.1" xmlns="http://www.w3.org/2000/svg" p-id="7351" xmlns:xlink="http://www.w3.org/1999/xlink" width="200" height="200"><defs><style type="text/css"></style></defs><path d="M749.481 712.368c0 4.951-0.451 9.778-0.753 14.639-11.646-4.022-23.71-7.66-36.246-11.053 0.002-1.183 0.195-2.343 0.195-3.546 0-99.339-70.425-182.223-164.444-202.338-14.002 4.398-28.679 7.421-44.14 7.421-15.49 0-30.092-3.007-44.123-7.421C366.865 530 296.914 611.596 295.649 709.721c-12.549 2.921-24.795 6.114-36.591 9.607-0.004-2.306-0.327-4.58-0.327-6.911 0-102.916 64.329-190.667 155.097-226.414-34.446-26.755-56.945-67.933-56.945-114.709 0-80.722 65.949-146.205 147.222-146.205s147.222 65.439 147.222 146.205c0 46.766-22.508 87.952-56.945 114.709 90.757 35.717 155.057 123.482 155.057 226.391zM614.512 371.222c0-60.541-49.456-109.634-110.411-109.634S393.69 310.686 393.69 371.222c0 60.549 49.456 109.634 110.411 109.634s110.411-49.098 110.411-109.634z m276.118 66.349c-31.751-183.638-192.496-323.57-386.518-323.57-216.842 0-392.592 174.546-392.592 389.83s175.796 389.83 392.592 389.83c194.001 0 354.77-139.875 386.518-323.57 9.328 4.294 19.655 6.759 30.646 6.759 6.334 0 12.422-1.041 18.295-2.564-34.044 208.603-215.759 368.02-435.458 368.02-243.915 0-441.691-196.324-441.691-438.595S260.167 65.116 504.113 65.116c219.712 0 401.41 159.423 435.458 368.006-5.886-1.53-11.97-2.564-18.295-2.564-10.993-0.002-21.299 2.478-30.646 6.756z" p-id="7352" fill="#cdcdcd"></path></svg>