<?xml version="1.0" standalone="no"?><!DOCTYPE svg PUBLIC "-//W3C//DTD SVG 1.1//EN" "http://www.w3.org/Graphics/SVG/1.1/DTD/svg11.dtd"><svg t="1573638316239" class="icon" viewBox="0 0 1024 1024" version="1.1" xmlns="http://www.w3.org/2000/svg" p-id="6562" xmlns:xlink="http://www.w3.org/1999/xlink" width="200" height="200"><defs><style type="text/css"></style></defs><path d="M648.533333 216.177778c108.088889 0 193.422222 79.644444 193.422222 176.355556 0 22.755556-5.688889 45.511111-11.377778 62.577778-5.688889 17.066667-5.688889 34.133333 5.688889 51.2 11.377778 17.066667 22.755556 28.444444 39.822222 28.444444 51.2 5.688889 91.022222 51.2 91.022222 102.4 0 56.888889-45.511111 102.4-102.4 102.4L159.288889 739.555556c-56.888889 0-102.4-45.511111-102.4-102.4 0-51.2 39.822222-96.711111 91.022222-102.4 17.066667 0 34.133333-11.377778 39.822222-22.755556 11.377778-11.377778 11.377778-28.444444 5.688889-45.511111C193.422222 455.111111 193.422222 443.733333 193.422222 438.044444L193.422222 426.666667c0-56.888889 51.2-108.088889 108.088889-108.088889l11.377778 0c28.444444 0 56.888889 11.377778 68.266667 28.444444 11.377778 11.377778 22.755556 11.377778 34.133333 11.377778 5.688889 0 5.688889 0 11.377778 0C449.422222 352.711111 460.8 341.333333 472.177778 324.266667 500.622222 256 568.888889 216.177778 648.533333 216.177778M648.533333 159.288889c-102.4 0-193.422222 56.888889-233.244444 142.222222C392.533333 273.066667 352.711111 261.688889 312.888889 261.688889L301.511111 261.688889c-91.022222 0-164.977778 73.955556-164.977778 164.977778l0 11.377778c0 17.066667 0 28.444444 5.688889 39.822222C62.577778 489.244444 0 557.511111 0 637.155556 0 722.488889 73.955556 796.444444 159.288889 796.444444l705.422222 0c85.333333 0 159.288889-73.955556 159.288889-159.288889 0-79.644444-62.577778-147.911111-142.222222-159.288889 11.377778-28.444444 17.066667-56.888889 17.066667-85.333333C904.533333 261.688889 790.755556 159.288889 648.533333 159.288889L648.533333 159.288889z" p-id="6563" fill="#cdcdcd"></path></svg>