<?xml version="1.0" standalone="no"?><!DOCTYPE svg PUBLIC "-//W3C//DTD SVG 1.1//EN" "http://www.w3.org/Graphics/SVG/1.1/DTD/svg11.dtd"><svg t="1574332466628" class="icon" viewBox="0 0 1024 1024" version="1.1" xmlns="http://www.w3.org/2000/svg" p-id="4583" xmlns:xlink="http://www.w3.org/1999/xlink" width="200" height="200"><defs><style type="text/css"></style></defs><path d="M281.6 230.4h640c28.16 0 51.2-23.04 51.2-51.2s-23.04-51.2-51.2-51.2H281.6c-28.16 0-51.2 23.04-51.2 51.2s23.04 51.2 51.2 51.2z m0 332.8h409.6c28.16 0 51.2-23.04 51.2-51.2s-23.04-51.2-51.2-51.2H281.6c-28.16 0-51.2 23.04-51.2 51.2s23.04 51.2 51.2 51.2z m640 230.4H281.6c-28.16 0-51.2 23.04-51.2 51.2s23.04 51.2 51.2 51.2h640c28.16 0 51.2-23.04 51.2-51.2s-23.04-51.2-51.2-51.2zM102.4 128c-28.16 0-51.2 23.04-51.2 51.2s23.04 51.2 51.2 51.2 51.2-23.04 51.2-51.2-23.04-51.2-51.2-51.2z m0 332.8c-28.16 0-51.2 23.04-51.2 51.2s23.04 51.2 51.2 51.2 51.2-23.04 51.2-51.2-23.04-51.2-51.2-51.2z m0 332.8c-28.16 0-51.2 23.04-51.2 51.2s23.04 51.2 51.2 51.2 51.2-23.04 51.2-51.2-23.04-51.2-51.2-51.2z" p-id="4584" fill="#ffffff"></path></svg>