<?xml version="1.0" standalone="no"?><!DOCTYPE svg PUBLIC "-//W3C//DTD SVG 1.1//EN" "http://www.w3.org/Graphics/SVG/1.1/DTD/svg11.dtd"><svg t="1573638276904" class="icon" viewBox="0 0 1024 1024" version="1.1" xmlns="http://www.w3.org/2000/svg" p-id="5748" xmlns:xlink="http://www.w3.org/1999/xlink" width="200" height="200"><defs><style type="text/css"></style></defs><path d="M512.5 542.5c59.36 0 115.17-23.12 157.14-65.09 41.97-41.97 65.09-97.78 65.09-157.14s-23.12-115.17-65.09-157.14c-41.97-41.97-97.78-65.09-157.14-65.09-59.36 0-115.17 23.12-157.14 65.09s-65.09 97.78-65.09 157.14 23.12 115.17 65.09 157.14 97.78 65.09 157.14 65.09z m0-384.46c89.45 0 162.23 72.78 162.23 162.23S601.95 482.5 512.5 482.5s-162.23-72.78-162.23-162.23 72.78-162.23 162.23-162.23z m203.07 511.82C661.19 615.49 588.9 585.54 512 585.54s-149.19 29.95-203.57 84.32c-54.38 54.38-84.32 126.67-84.32 203.57v19.96c0 16.57 13.43 30 30 30h515.78c16.57 0 30-13.43 30-30v-19.96c0-76.9-29.95-149.19-84.32-203.57zM284.33 863.39c2.46-57.1 25.86-110.43 66.53-151.1 43.04-43.04 100.27-66.75 161.14-66.75s118.1 23.71 161.14 66.75c40.67 40.67 64.07 94 66.53 151.1H284.33z" p-id="5749" fill="#cdcdcd"></path></svg>