<?xml version="1.0" standalone="no"?><!DOCTYPE svg PUBLIC "-//W3C//DTD SVG 1.1//EN" "http://www.w3.org/Graphics/SVG/1.1/DTD/svg11.dtd"><svg t="1573637201007" class="icon" viewBox="0 0 1024 1024" version="1.1" xmlns="http://www.w3.org/2000/svg" p-id="3456" xmlns:xlink="http://www.w3.org/1999/xlink" width="200" height="200"><defs><style type="text/css"></style></defs><path d="M89.721 337.363c-20.002 0-36.215 16.214-36.215 36.215v642.753h72.43V373.577c-0.001-20-16.215-36.214-36.215-36.214zM375.219 35.727c-20.001 0-36.215 16.214-36.215 36.215v944.389h72.43V71.942c0-20.001-16.214-36.215-36.215-36.215zM660.717 337.363c-20.001 0-36.215 16.214-36.215 36.215v642.753h72.43V373.577c0-20-16.214-36.214-36.215-36.214zM946.216 87.764c-20.001 0-36.215 16.214-36.215 36.215v892.351h72.43V123.979c0-20-16.215-36.215-36.215-36.215z" p-id="3457"></path></svg>