<?xml version="1.0" standalone="no"?><!DOCTYPE svg PUBLIC "-//W3C//DTD SVG 1.1//EN" "http://www.w3.org/Graphics/SVG/1.1/DTD/svg11.dtd"><svg t="1574332407096" class="icon" viewBox="0 0 1024 1024" version="1.1" xmlns="http://www.w3.org/2000/svg" p-id="3807" xmlns:xlink="http://www.w3.org/1999/xlink" width="200" height="200"><defs><style type="text/css"></style></defs><path d="M903.618259 94.616938c-36.307927-20.973684-79.674621-21.007453-116.793007 0.472767L271.016507 411.796834c-36.054147 21.007453-57.551764 58.430784-57.551764 100.210329 0.016373 41.914622 21.683858 79.472006 57.180304 99.939153l516.990664 317.381488c18.154475 10.470469 38.063921 15.739473 57.991786 15.739472 19.910469-0.033769 39.820937-5.269004 57.974389-15.739472 36.3243-20.973684 58.008158-58.498322 58.008158-100.446713V195.063651c0-41.930995-21.683858-79.489402-57.991785-100.446713zM892.439662 828.881091c0 16.921391-8.747221 32.085766-23.422456 40.530088-14.675234 8.477069-32.153304 8.477069-45.98431 0.472768L306.041208 552.502459c-14.657838-8.443299-23.406083-23.608697-23.406083-40.530088 0-16.921391 8.747221-32.069393 23.406083-40.530089l516.180206-316.926116c7.328919-4.238534 15.368012-6.349615 23.406083-6.349615s16.077164 2.111081 23.406082 6.349615c14.657838 8.460696 23.406083 23.62507 23.406083 40.546462V828.881091zM96.974635 150.042271c-19.10001 0-34.585703 15.485693-34.585703 34.585703v654.69084c0 19.116383 15.485693 34.585703 34.585703 34.585703s34.585703-15.46932 34.585703-34.585703V184.627974c0-19.10001-15.485693-34.585703-34.585703-34.585703z" p-id="3808" fill="#ffffff"></path></svg>