<?xml version="1.0" standalone="no"?><!DOCTYPE svg PUBLIC "-//W3C//DTD SVG 1.1//EN" "http://www.w3.org/Graphics/SVG/1.1/DTD/svg11.dtd"><svg t="1574931345221" class="icon" viewBox="0 0 1024 1024" version="1.1" xmlns="http://www.w3.org/2000/svg" p-id="3487" xmlns:xlink="http://www.w3.org/1999/xlink" width="200" height="200"><defs><style type="text/css"></style></defs><path d="M740.5568 908.45184l160.62464 17.57184c18.06336 1.92512 31.17056 18.3296 29.184 36.4544-1.8432 16.81408-16.13824 29.40928-32.72704 29.40928-1.29024 0-2.33472-0.08192-3.62496-0.2048l-231.05536-25.31328c-8.72448-1.00352-16.65024-5.3248-22.09792-12.20608-5.55008-6.77888-8.02816-15.50336-7.168-24.24832l25.27232-231.424c1.98656-18.1248 18.20672-31.25248 36.352-29.26592 18.14528 1.98656 31.10912 18.35008 29.20448 36.51584l-15.95392 145.16224c123.71968-68.23936 207.79008-199.82336 207.79008-351.29344 0-221.65504-179.5072-401.48992-400.83456-401.48992-2.08896 0-3.97312 0.28672-6.0416 0.28672L509.48096 97.71008C493.40416 95.60064 480.84992 81.92 480.84992 65.1264c0-16.50688 12.12416-30.02368 27.91424-32.44032L508.76416 32.4608c1.1264 0 2.19136-0.06144 3.15392-0.14336 0.65536 0 1.2288-0.22528 1.86368-0.22528 0.2048 0 0.43008 0.08192 0.55296 0.08192 0.43008-0.08192 0.83968-0.08192 1.29024-0.08192 257.29024 0 466.67776 209.67424 466.67776 467.456C982.3232 675.57376 884.51072 828.78464 740.5568 908.45184L740.5568 908.45184 740.5568 908.45184zM515.19488 991.39584l0 0.12288c-1.1264 0-2.10944 0.18432-3.15392 0.18432-0.65536 0-1.2288 0.2048-1.8432 0.2048-0.22528 0-0.38912-0.08192-0.55296-0.08192-0.43008 0-0.86016 0.08192-1.29024 0.08192-257.35168 0-466.65728-209.75616-466.65728-467.47648 0-176.00512 97.83296-329.19552 241.70496-408.84224l-160.5632-17.63328C104.73472 95.96928 91.648 79.6672 93.53216 61.52192c1.8432-16.87552 16.15872-29.42976 32.74752-29.42976 1.20832 0 2.39616 0.08192 3.62496 0.22528l230.99392 25.2928c8.78592 0.98304 16.71168 5.38624 22.15936 12.1856 5.55008 6.88128 8.02816 15.60576 7.10656 24.33024l-25.2928 231.34208c-1.98656 18.14528-18.20672 31.232-36.352 29.26592-18.1248-2.048-31.10912-18.35008-29.10208-36.41344l15.85152-145.24416C191.54944 241.3568 107.58144 372.85888 107.58144 524.36992c0 221.696 179.4048 401.55136 400.75264 401.55136 2.048 0 3.97312-0.34816 6.02112-0.43008l0 0.8192c16.24064 2.10944 28.69248 15.85152 28.69248 32.5632C543.06816 975.31904 530.96448 988.81536 515.19488 991.39584L515.19488 991.39584 515.19488 991.39584zM515.19488 991.39584" p-id="3488" fill="#ffffff"></path></svg>