<?xml version="1.0" standalone="no"?><!DOCTYPE svg PUBLIC "-//W3C//DTD SVG 1.1//EN" "http://www.w3.org/Graphics/SVG/1.1/DTD/svg11.dtd"><svg t="1574931735107" class="icon" viewBox="0 0 1024 1024" version="1.1" xmlns="http://www.w3.org/2000/svg" p-id="4442" xmlns:xlink="http://www.w3.org/1999/xlink" width="200" height="200"><defs><style type="text/css"></style></defs><path d="M465.477783 47.03345v817.97304l-213.184223-212.67299c-17.381927-18.404393-47.544683-18.404393-65.437844 0-17.89316 17.89316-17.89316 47.544683 0 65.949076l291.914129 292.425362 2.044933 2.044933h0.511233l1.022466 1.533699 2.044933 1.5337c1.533699 1.533699 3.578632 2.556166 5.112331 3.578632l0.511234 0.511233 1.533699 0.511233 2.044933 0.511233c1.533699 1.022466 3.578632 1.533699 5.112331 1.5337l1.5337 0.511233 3.578632 0.511233 4.089865 0.511233h7.668497l4.089865-0.511233 4.089865-0.511233 0.511234-0.511233c2.044933 0 4.089865-0.511233 6.134797-1.5337l1.5337-0.511233 2.044932-0.511233v-0.511233c1.533699-1.022466 3.578632-2.044933 5.112332-3.578632l1.533699-1.5337 1.5337-1.533699h0.511233l2.044933-2.044933 291.914128-292.425362c17.89316-17.89316 17.89316-47.544683 0-65.949076-17.89316-18.404393-47.544683-18.404393-65.949076 0L558.010984 865.00649V47.03345c0-25.561658-20.960559-47.03345-46.010984-47.03345-25.561658 0-46.522217 21.471792-46.522217 47.03345z" p-id="4443" fill="#ffffff"></path></svg>