<?xml version="1.0" standalone="no"?><!DOCTYPE svg PUBLIC "-//W3C//DTD SVG 1.1//EN" "http://www.w3.org/Graphics/SVG/1.1/DTD/svg11.dtd"><svg t="1574843384415" class="icon" viewBox="0 0 1063 1024" version="1.1" xmlns="http://www.w3.org/2000/svg" p-id="9288" xmlns:xlink="http://www.w3.org/1999/xlink" width="207.6171875" height="200"><defs><style type="text/css"></style></defs><path d="M783.753846 378.092308C803.446154 177.230769 634.092308 11.815385 433.230769 31.507692c-137.846154 15.753846-252.061538 122.092308-275.692307 259.938462-23.630769 133.907692 39.384615 256 141.784615 319.015384C157.538462 661.661538 51.2 779.815385 7.876923 921.6c-7.876923 23.630769 11.815385 51.2 39.384615 51.2 19.692308 0 31.507692-11.815385 39.384616-27.569231 51.2-165.415385 200.861538-283.569231 382.030769-287.507692 157.538462 0 299.323077-118.153846 315.076923-279.630769z m-315.076923 204.8c-129.969231 0-236.307692-106.338462-236.307692-236.307693s106.338462-236.307692 236.307692-236.307692 236.307692 106.338462 236.307692 236.307692-106.338462 236.307692-236.307692 236.307693zM1039.753846 685.292308l-118.153846-47.261539c-15.753846-7.876923-35.446154-7.876923-51.2 0-19.692308 11.815385-35.446154 31.507692-43.323077 55.138462l-3.938461 15.753846v3.938461l-27.569231 106.338462c-7.876923-7.876923-19.692308-11.815385-35.446154-15.753846-51.2-11.815385-106.338462 19.692308-118.153846 70.892308-11.815385 51.2 19.692308 106.338462 70.892307 118.153846 51.2 11.815385 106.338462-19.692308 118.153847-70.892308v-7.876923l47.261538-189.046154v-3.938461c39.384615 39.384615 98.461538 51.2 149.661539 31.507692 7.876923-3.938462 15.753846-7.876923 23.630769-15.753846 11.815385-19.692308 3.938462-43.323077-11.815385-51.2z" fill="#707070" p-id="9289"></path></svg>